<?xml version="1.0" standalone="no"?>
<!DOCTYPE svg PUBLIC "-//W3C//DTD SVG 20010904//EN"
 "http://www.w3.org/TR/2001/REC-SVG-20010904/DTD/svg10.dtd">
<svg version="1.0" xmlns="http://www.w3.org/2000/svg"
 width="840.000000pt" height="840.000000pt" viewBox="0 0 840.000000 840.000000"
 preserveAspectRatio="xMidYMid meet">
<metadata>
Created by potrace 1.14, written by Peter Selinger 2001-2017
</metadata>
<g transform="translate(0.000000,840.000000) scale(0.100000,-0.100000)"
fill="#000000" stroke="none">
<path d="M1674 6749 c-165 -226 -308 -423 -319 -439 -11 -16 -58 -81 -105
-145 -47 -65 -94 -130 -105 -145 -11 -16 -84 -117 -162 -224 l-143 -196 111
-152 c60 -84 115 -160 122 -168 7 -9 28 -38 47 -65 19 -28 38 -54 42 -60 22
-27 100 -134 158 -216 36 -50 74 -103 86 -117 11 -15 110 -151 219 -302 227
-314 335 -462 344 -472 4 -4 87 19 186 51 99 33 308 100 465 151 157 50 292
94 300 97 8 3 20 7 25 8 6 2 37 12 70 23 33 11 209 68 390 127 182 59 346 112
365 120 l35 13 0 962 0 962 -65 23 c-36 13 -114 39 -175 58 -158 51 -787 255
-870 282 -38 13 -205 67 -370 120 -165 53 -310 100 -323 105 -13 6 -24 10 -26
10 -2 0 -138 -185 -302 -411z"/>
<path d="M6200 7100 c-96 -32 -337 -111 -535 -175 -198 -64 -448 -145 -555
-180 -107 -35 -260 -85 -340 -110 -191 -62 -210 -68 -212 -75 -1 -3 -2 -438
-3 -967 -1 -629 2 -963 8 -963 9 0 545 -172 732 -235 39 -13 212 -69 385 -125
173 -56 403 -131 510 -166 216 -71 195 -71 240 -4 8 12 36 49 61 83 25 34 59
81 75 103 43 62 257 357 271 374 7 8 86 116 175 240 212 294 201 277 218 300
8 10 40 54 70 96 30 43 87 121 126 174 102 138 99 127 55 185 -21 28 -134 183
-251 345 -117 162 -236 327 -265 365 -28 39 -98 135 -156 215 -57 80 -109 152
-116 160 -10 12 -85 116 -229 315 -63 88 -77 105 -82 104 -4 0 -86 -27 -182
-59z"/>
<path d="M3985 4099 c-104 -76 -194 -142 -200 -146 -5 -5 -84 -62 -175 -128
-91 -65 -196 -142 -235 -170 -38 -29 -178 -130 -310 -225 -242 -175 -424 -307
-437 -319 -4 -4 21 -94 56 -201 106 -323 240 -735 241 -740 1 -5 100 -312 219
-675 l72 -220 964 0 964 0 52 160 c29 88 109 336 179 550 70 215 155 478 190
585 35 107 85 260 110 340 25 80 51 156 56 169 5 13 6 27 2 32 -4 4 -168 123
-363 264 -344 250 -632 459 -735 535 -139 102 -413 299 -435 312 -24 15 -29
13 -215 -123z"/>
</g>
</svg>
